HIERARCHY
ROOT Hips
{
	OFFSET 0.00000 0.00000 0.00000
	CHANNELS 6 Xposition Yposition Zposition Zrotation Yrotation Xrotation 
	JOINT LHipJoint
	{
		OFFSET 0 0 0
		CHANNELS 3 Zrotation Yrotation Xrotation
		JOINT LeftHip
		{
			OFFSET 1.34019 -1.87553 0.90315
			CHANNELS 3 Zrotation Yrotation Xrotation
			JOINT LeftKnee
			{
				OFFSET 2.55316 -7.01474 0.00000
				CHANNELS 3 Zrotation Yrotation Xrotation
				JOINT LeftAnkle
				{
					OFFSET 2.64657 -7.27139 0.00000
					CHANNELS 3 Zrotation Yrotation Xrotation
					JOINT LeftToe
					{
						OFFSET 0.24207 -0.66507 2.14489
						CHANNELS 3 Zrotation Yrotation Xrotation
						End Site
						{
							OFFSET 0.00000 -0.00000 1.12451
						}
					}
				}
			}
		}
	}
	JOINT RHipJoint
	{
		OFFSET 0 0 0
		CHANNELS 3 Zrotation Yrotation Xrotation
		JOINT RightHip
		{
			OFFSET -1.28320 -1.87553 0.90315
			CHANNELS 3 Zrotation Yrotation Xrotation
			JOINT RightKnee
			{
				OFFSET -2.60484 -7.15674 0.00000
				CHANNELS 3 Zrotation Yrotation Xrotation
				JOINT RightAnkle
				{
					OFFSET -2.60296 -7.15159 0.00000
					CHANNELS 3 Zrotation Yrotation Xrotation
					JOINT RightToe
					{
						OFFSET -0.31082 -0.85398 2.28998
						CHANNELS 3 Zrotation Yrotation Xrotation
						End Site
						{
							OFFSET -0.00000 -0.00000 1.21611
						}
					}
				}
			}
		}
	}
	JOINT lowerback
	{
		OFFSET 0 0 0
		CHANNELS 3 Zrotation Yrotation Xrotation
		JOINT Chest
		{
			OFFSET -0.00160 2.05581 -0.15156
			CHANNELS 3 Zrotation Yrotation Xrotation
			JOINT Chest2
			{
				OFFSET 0.04594 2.06326 -0.01617
				CHANNELS 3 Zrotation Yrotation Xrotation
				JOINT lowerneck
				{
					OFFSET 0 0 0
					CHANNELS 3 Zrotation Yrotation Xrotation
					JOINT Neck
					{
						OFFSET 0.03753 1.73883 0.26751
						CHANNELS 3 Zrotation Yrotation Xrotation
						JOINT Head
						{
							OFFSET -0.09795 1.76129 -0.31794
							CHANNELS 3 Zrotation Yrotation Xrotation
							End Site
							{
								OFFSET -0.03611 1.79987 -0.13846
							}
						}
					}
				}
				JOINT LeftCollar
				{
					OFFSET 0 0 0
					CHANNELS 3 Zrotation Yrotation Xrotation
					JOINT LeftShoulder
					{
						OFFSET 3.30667 1.29205 -0.22445
CHANNELS 3 Zrotation Xrotation Yrotation
						JOINT LeftElbow
						{
OFFSET 0 -4.927850 -0.000000
CHANNELS 3 Zrotation Xrotation Yrotation
							JOINT LeftWrist
							{
OFFSET 0 -3.440520 0.000000
CHANNELS 3 Zrotation Xrotation Yrotation
								JOINT lhand
								{
									OFFSET 0 0 0
CHANNELS 3 Zrotation Xrotation Yrotation
									JOINT LFingers
									{
OFFSET 0 -0.654330 0.000000
CHANNELS 3 Zrotation Xrotation Yrotation
										End Site
										{
OFFSET 0 -0.527530 0.000000
										}
									}
								}
								JOINT LThumb
								{
OFFSET 0 0.000000 0.000000
CHANNELS 3 Zrotation Xrotation Yrotation
									End Site
									{
OFFSET 0 -0.535590 0.535590
									}
								}
							}
						}
					}
				}
				JOINT RightCollar
				{
					OFFSET 0 0 0
					CHANNELS 3 Zrotation Yrotation Xrotation
					JOINT RightShoulder
					{
						OFFSET -3.20032 1.49783 -0.27688
CHANNELS 3 Zrotation Xrotation Yrotation
						JOINT RightElbow
						{
OFFSET 0 -5.091810 -0.000000
CHANNELS 3 Zrotation Xrotation Yrotation
							JOINT RightWrist
							{
OFFSET 0 -3.498650 -0.000000
CHANNELS 3 Zrotation Xrotation Yrotation
								JOINT rhand
								{
									OFFSET 0 0 0
CHANNELS 3 Zrotation Xrotation Yrotation
									JOINT RFingers
									{
OFFSET 0 -0.666410 0.000000
CHANNELS 3 Zrotation Xrotation Yrotation
										End Site
										{
OFFSET 0 -0.537280 0.000000
										}
									}
								}
								JOINT RThumb
								{
OFFSET 0 0.000000 0.000000
CHANNELS 3 Zrotation Xrotation Yrotation
									End Site
									{
OFFSET 0 -0.545480 0.545480
									}
								}
							}
						}
					}
				}
			}
		}
	}
}
MOTION
Frames: 5
Frame Time: 0.008333333333333333
-0.379000 17.743300 -27.568200 -2.871800 6.200500 2.380700 0.000000 0.000000 0.000000 -15.644800 -5.609800 -11.157000 3.070900 10.809000 31.638400 0.658400 7.757400 -20.063700 0.121100 -2.243600 -6.179300 0.000000 0.000000 0.000000 20.655000 0.864800 -10.490900 -3.175300 -10.973600 32.191000 0.035300 -18.012700 -25.205200 -0.017600 0.857300 -2.356200 -1.563200 -0.168700 -0.167200 2.767700 -0.201000 -1.471700 3.725900 -0.061600 -1.401200 6.026700 -6.883500 -22.727800 -7.655100 -9.772300 25.915500 -5.391500 -4.848600 11.459300 0.000000 0.000000 0.000000 1.359400 1.231800 -26.294600 12.552200 -20.627500 2.293100 11.339400 -4.267900 -0.940700 0.000000 0.000000 0.000000 -7.125000 0.000000 0.000000 -12.054400 30.806300 -4.264100 0.000000 0.000000 0.000000 -3.988000 -0.234200 16.032700 -12.609100 -20.711800 -2.313200 -14.664500 -3.517500 5.034600 0.000000 0.000000 0.000000 7.125000 0.000000 -0.000000 9.952800 35.041300 2.465100
-0.370287 17.755588 -27.564693 -2.854745 6.348140 2.351857 0.000000 0.000000 0.000000 -15.661232 -5.698597 -11.399488 3.109664 10.870454 31.844277 0.653116 7.701444 -19.963584 0.126981 -2.297104 -6.327399 0.000000 0.000000 0.000000 20.625825 0.685709 -10.350335 -3.127379 -10.898410 31.938010 0.063235 -18.098447 -25.083185 -0.017846 0.861568 -2.367997 -1.322891 -0.217541 -0.169738 2.541172 -0.267625 -1.460676 3.356106 -0.099870 -1.384803 6.154472 -6.940674 -22.720111 -7.594948 -9.921154 26.138925 -5.424182 -4.887643 11.526313 0.000000 0.000000 0.000000 1.722753 1.318898 -26.389111 12.585626 -20.677065 2.304917 11.302942 -4.123869 -1.134639 0.000000 0.000000 0.000000 -7.125000 0.000000 0.000000 -12.108354 30.998900 -4.226732 0.000000 0.000000 0.000000 -3.603602 -0.187372 15.713364 -12.481482 -20.522824 -2.268244 -14.904258 -3.051561 4.495059 0.000000 0.000000 0.000000 7.125000 0.000000 0.000000 9.681411 34.502729 2.524233
-0.359241 17.753610 -27.563962 -2.876171 6.386065 2.352046 0.000000 0.000000 0.000000 -15.669234 -5.666323 -11.446309 3.122704 10.891118 31.913475 0.662055 7.625114 -19.990465 0.125471 -2.283093 -6.288682 0.000000 0.000000 0.000000 20.608720 0.600146 -10.361946 -3.114999 -10.878938 31.872645 0.093711 -18.179096 -24.931481 -0.020669 0.927572 -2.549659 -0.982803 -0.238256 -0.201014 2.302135 -0.295401 -1.505419 2.917638 -0.119032 -1.413533 6.308975 -6.913011 -22.512885 -7.486013 -9.959609 26.219442 -5.406535 -4.872509 11.512069 0.000000 0.000000 0.000000 2.111870 1.487950 -26.526164 12.602003 -20.701287 2.310677 11.197395 -4.251659 -1.115598 0.000000 0.000000 0.000000 -7.125000 0.000000 0.000000 -12.188445 30.977523 -4.262315 0.000000 0.000000 0.000000 -3.209293 -0.052156 15.476609 -12.425834 -20.440155 -2.248818 -14.872686 -2.805588 4.780513 0.000000 0.000000 0.000000 7.125000 0.000000 0.000000 9.746430 34.792154 2.472328
-0.349577 17.753492 -27.565573 -2.899378 6.411771 2.354253 0.000000 0.000000 0.000000 -15.674794 -5.683722 -11.483286 3.131479 10.904914 31.959751 0.664777 7.602982 -19.999551 0.124381 -2.273518 -6.262220 0.000000 0.000000 0.000000 20.606009 0.617478 -10.343700 -3.107730 -10.867445 31.834104 0.101881 -18.222410 -24.922167 -0.020266 0.919294 -2.526842 -0.637098 -0.254828 -0.200588 2.046442 -0.316788 -1.615979 2.460153 -0.134090 -1.528509 6.692501 -6.763569 -22.225084 -7.497784 -9.865381 26.216849 -5.440214 -4.795438 11.440378 0.000000 0.000000 0.000000 2.545267 1.796566 -26.742446 12.632652 -20.746650 2.321550 11.085015 -4.485798 -0.979397 0.000000 0.000000 0.000000 -7.125000 0.000000 0.000000 -12.258405 30.839420 -4.329337 0.000000 0.000000 0.000000 -2.776337 0.219761 15.183742 -12.305725 -20.261569 -2.207053 -14.999507 -2.365807 4.546488 0.000000 0.000000 0.000000 7.125000 0.000000 0.000000 9.610454 34.559293 2.492227
-0.339405 17.753113 -27.565795 -2.909317 6.455056 2.351843 0.000000 0.000000 0.000000 -15.696234 -5.687735 -11.499190 3.133767 10.908547 31.972022 0.667342 7.563394 -19.992188 0.123715 -2.267635 -6.245973 0.000000 0.000000 0.000000 20.583971 0.596668 -10.348185 -3.107982 -10.867872 31.835605 0.111320 -18.266831 -24.903331 -0.020887 0.932935 -2.564271 -0.340287 -0.250493 -0.214405 1.799876 -0.310468 -1.740568 2.040019 -0.135248 -1.651303 7.082689 -6.654799 -21.870018 -7.543638 -9.813837 26.207506 -5.488573 -4.742364 11.346861 0.000000 0.000000 0.000000 2.960791 2.138183 -27.023850 12.659174 -20.785824 2.330915 11.015697 -4.675156 -0.841528 0.000000 0.000000 0.000000 -7.125000 0.000000 0.000000 -12.294289 30.700643 -4.384358 0.000000 0.000000 0.000000 -2.362164 0.554523 14.837630 -12.207951 -20.115810 -2.173274 -15.119548 -1.946507 4.333952 0.000000 0.000000 0.000000 7.125000 0.000000 0.000000 9.483799 34.347637 2.508057
